<svg  viewBox="0 0 18 19"  xmlns="http://www.w3.org/2000/svg">

<path fill="rgba(255, 255, 255, 0.6)" d="M5.25 3.5C5.25 2.67157 5.92157 2 6.75 2H11.25C12.0784 2 12.75 2.67157 12.75 3.5V5H14.2423C14.2469 4.99996 14.2515 4.99996 14.2562 5H15.75C16.1642 5 16.5 5.33579 16.5 5.75C16.5 6.16421 16.1642 6.5 15.75 6.5H14.9483L14.2978 15.6069C14.2418 16.3918 13.5886 17 12.8017 17H5.19834C4.41138 17 3.75822 16.3918 3.70215 15.6069L3.05166 6.5H2.25C1.83579 6.5 1.5 6.16421 1.5 5.75C1.5 5.33579 1.83579 5 2.25 5H3.74381C3.74846 4.99996 3.75311 4.99996 3.75774 5H5.25V3.5ZM6.75 5H11.25V3.5H6.75V5ZM4.55548 6.5L5.19834 15.5H12.8017L13.4445 6.5H4.55548ZM7.5 8C7.91421 8 8.25 8.33579 8.25 8.75V13.25C8.25 13.6642 7.91421 14 7.5 14C7.08579 14 6.75 13.6642 6.75 13.25V8.75C6.75 8.33579 7.08579 8 7.5 8ZM10.5 8C10.9142 8 11.25 8.33579 11.25 8.75V13.25C11.25 13.6642 10.9142 14 10.5 14C10.0858 14 9.75 13.6642 9.75 13.25V8.75C9.75 8.33579 10.0858 8 10.5 8Z" />

</svg>
