<svg  viewBox="0 0 25 24"  xmlns="http://www.w3.org/2000/svg">

<path fill="rgba(255, 255, 255, 0.6)" d="M16.7929 2.29289C17.1834 1.90237 17.8166 1.90237 18.2071 2.29289L22.2071 6.29289C22.5976 6.68342 22.5976 7.31658 22.2071 7.70711L9.20711 20.7071C9.01957 20.8946 8.76522 21 8.5 21H4.5C3.94772 21 3.5 20.5523 3.5 20V16C3.5 15.7348 3.60536 15.4804 3.79289 15.2929L13.7927 5.2931L16.7929 2.29289ZM14.5 7.41421L5.5 16.4142V19H8.08579L17.0858 10L14.5 7.41421ZM18.5 8.58579L20.0858 7L17.5 4.41421L15.9142 6L18.5 8.58579Z" />

</svg>
